<?xml version="1.0" encoding="utf-8"?>
<!-- Generator: Adobe Illustrator 28.2.0, SVG Export Plug-In . SVG Version: 6.00 Build 0)  -->
<svg version="1.1" id="Capa_1" xmlns="http://www.w3.org/2000/svg" xmlns:xlink="http://www.w3.org/1999/xlink" x="0px" y="0px"
	 viewBox="0 0 1938 149.9" style="enable-background:new 0 0 1938 149.9;" xml:space="preserve">
<style type="text/css">
	.st0{display:none;}
	.st1{fill:#E8110F;}
	.st2{display:none;fill:#E8110F;}
</style>
<g id="Capa_1_00000106839969517963721080000017110093835188763319_">
</g>
<g id="Capa_2_00000166643095831293092580000003509912326836070328_" class="st0">
	
		<image style="display:inline;overflow:visible;enable-background:new    ;" width="614" height="292" xlink:href="9B562763.jpeg"  transform="matrix(3.122 0 0 3.122 -158.439 0)">
	</image>
</g>
<g id="Capa_3">
	<path class="st1" d="M1938,95.1c-252.7,34.1-448.5,25.1-448.5,25.1l-9.4-18.3c0,0-769.9,80.2-1480.1,19.2V0.8h1938V95.1z"/>
	<g>
		<path class="st2" d="M142.4,19.9c-20,8.8-29.1,23.6-36.1,42.4c2.6-2.5,3.4-3.3,4.2-4c8.7-8.2,18.1-16.1,25.9-24.9
			C139.5,29.9,149.4,27.3,142.4,19.9z"/>
		<path class="st2" d="M130.4,45.7c-9.1,10.5-18.1,21-27.2,31.5c1.3,0.7,2.5,1.5,3.8,2.2c11.4-9.1,21.6-18.9,26.8-31.8
			C132.6,47,131.5,46.4,130.4,45.7z"/>
		<path class="st2" d="M0,108.2c3.1-2.6,6.5-5.1,10.1-7.7C25,90.2,28.3,74.3,38.3,61.7c7-8.7,12.3-18.4,19.2-27.3
			c-3.6,9.3-7.2,18.7-10.7,28c0.8,0.3,1.5,0.6,2.3,0.9C58,40.9,69.7,19.9,85.4,0.8H0V108.2z"/>
		<g>
			<path d="M933.7,134.6c-22.6-17.7-50.1-43.3-72.8-61c-8.2-6.4-14.8-12.8-8.8-23.1c1.2-2.1-1.6-5.7-2.4-8.2
				c-6.6,1.8-11.6,3.2-17.7,4.8c0.4-4,0.7-6.1,1-8.7c2.7,1.8,4.6,3.1,6.9,4.7c0.9-2.1,1.5-3.5,2.1-4.9l0.1,0c0-0.1,0-0.2,0-0.3
				c0,0.1-0.1,0.1-0.1,0.2c-2.9-2.7-5.4-6-9-7.8c-8.2-4.2-17.2-7.4-25.4-11.6c-1.9-1-3.7-4.3-3.2-6.1c1.1-4.3,1.4-8.2,0.1-11.8H0
				v120.3c325.8,28,608.2,30.9,812.7,19.7c-1.1-2.2-7.7-10.2-8.9-12.3c-5-8.7-11.9-16.6-19.2-26.4c22.7,8.3,26.9-9.9,39.7-14.4
				c18,14.4,40.1,35.8,58.2,50.1 M727.6,64.3c7.2,3.8,13.5,7,20.5,10.7C739.4,75.7,728.6,70,727.6,64.3z M762.9,70.4
				c-8.8-3.9-10.5-14.6-23.2-14.3c-3.5,0.1-10.9-4.2-6.4-11.2c3.8,2.7,7.3,5.1,10.8,7.6c0.9-0.5,1.8-1,2.6-1.5
				c-1.6-3.4-3.2-6.8-4.8-10.1c0.5-0.3,1-0.6,1.4-0.9c2.3,2.1,4.9,4,6.8,6.4c4.5,5.7,10,9.2,18.9,9.6c3.1,0.2,5.8,4.5,8.8,6.8
				c6.7,5.2,12.8,10.5,9,19.2c-1.2,2.8-1.5,5.9-2.7,10.8C775.9,83.6,771.2,74.1,762.9,70.4z"/>
			<path d="M862.3,11.2c-18.8-5.4-21.9,6.7-30.2,14.2c5-0.7,8.6-1.2,10.1-1.4c0,5.2,0,9.6,0,13.9C848.7,29.2,855.3,20.4,862.3,11.2z
				"/>
			<path d="M809.8,134.8"/>
		</g>
		<path class="st2" d="M184.1,0.8h-11.2c-0.1,0.3-0.3,0.7-0.5,1c0.7,0.7,1.3,1.4,2,2.1C177.6,2.9,180.9,1.9,184.1,0.8z"/>
	</g>
</g>
</svg>
